<svg xmlns="http://www.w3.org/2000/svg" height="40" viewBox="0 0 152.74 56.25"><defs><style>.cls-1{fill:#e06046;fill-rule:evenodd;}</style></defs><g id="图层_2" data-name="图层 2"><g id="图层_1-2" data-name="图层 1"><path class="cls-1" d="M105.23,49c-.51-.11-1.08-.28-1.6-.34-2.11-1.65-4-6.1-4.73-8.21-.06-.68-.06-1.37-.06-2,.52,0,.46-.29,1.32.28.74,1.71,5,5,7.23,6,1.2.06,2.46.17,3.65.23,0,1.59-4.33,3.93-5.81,4.1M81.68,50.66a2.51,2.51,0,0,0-.17-.45,2.36,2.36,0,0,1,.23-.4c5.93-2.17,10.72-8.9,11.92-15.39a1,1,0,0,1-.06-.4c-2.22.22-4.16,1.08-6,1.08C83.68,32.82,86,32.36,89,31.79a28.7,28.7,0,0,0,6.27-4c1.48-5,3.25-10.09,3.87-15,.92-1-.45-1.94,1.43-2.68.63.4,1.31.51,1.71,1.82a110.77,110.77,0,0,1-2,12.14,5.54,5.54,0,0,0,.06,1c3.3-.05,2.33-3.59,3.53-4.9a9.11,9.11,0,0,0,2.34,1.48c2.33,3-6.56,8.84-8.15,10-.74,2-1.43,4.16-2.17,6.27-4.11,6.32-7.13,11.28-14.2,12.82M60.89,23.87c0-2.74,2.68-3.42,4.79-4.85a1.67,1.67,0,0,1,.51.06,1.67,1.67,0,0,0,.06.51,3.76,3.76,0,0,1-1.09.86c-1,2.05-2.45,2.62-4.27,3.42m-.63,4.62c0-1.77.46-2.34,2.05-2.68.4.85-1.31,2.45-2.05,2.68m.06,14c0-2.16-.57-3.93,1.54-5,1.82-.12,1.59-.4,2.79,1.71-.46,1.54-3,2.91-4.33,3.3m-.4,7.87c0,1.37.06,2.8.11,4.22a1.42,1.42,0,0,1-.91,1.25c-2.39-2-2.22-5.87-2.62-8.32-2.17-.34-2.28-.23-2.45-1.94a10.92,10.92,0,0,0,2.39-.85c.57-1.26.23-4.91-.11-5.7-2.11,0-4.56,3.13-6.33,4-1.94,2.23-2.79,2.11-5,1a1.69,1.69,0,0,0,.12-.45c2.16-.86,10.2-5.87,10.71-8.5a1.26,1.26,0,0,1-1.08-.45v-.52c.4-.34.86-.62,1.31-1,.35-.79.69-3.24.35-3.7-2.46.06-3.43,4.79-6.28,3.82-1.42.91-4,3.08-5.7,2.22a4.76,4.76,0,0,1,.12-1c1.42-.69,2.56-1.6,4.56-2.63.91-1.65,0-3.47,1.82-3.87a11.23,11.23,0,0,0,.74.85c4.79-.06,4.85-7.18,4.91-10.26,1-1.77,3.36-1.48,3.59-3.88-3.82.52-3.48,4.28-6.27,4.85L52.68,19c-3.31,0-4.79,3.53-7.93,1v-.45c4.57-2.28,4.57-2.28,7.47-3.54,2-1.82.63-5.47,1.09-7.75,2.33-.06,2.22,3.7,3.82,5,2-.8,4-1.66,6.1-2.4,2.22-2.79,4.56-6.1,7-8.95,1.65-.17,2-.51,2.68,1.65-.34,1.26-1.65,1.94-1.94,3.14A4.21,4.21,0,0,0,73.32,5C74.8,4.6,77.25,6.25,75,8.19c-3.31,1.2-7,2.68-9.63,4.79-1,1.2-1.94,2.39-2.91,3.59-1.48,1.09-1.26.86-1.77,2.62,2.28-.34,8.72-6.55,9.75-.79,1.48,1.54.57,2-1,3.82-3,2.45-4.79,6.61-8.1,9v.51c1.37-.06,6.22-3.08,7.76-3.82,1.08.34,1.37.63,1.37,2.28A22.94,22.94,0,0,0,65.39,35c0,1.83,1.48,1.83,3.31,2.91,1.54,2.22-6.44,6-8.38,7.53-.17.39-.17.39-.4,4.84M139.2,23.87c-1.31-1.14,1.2-2.91,1.82-3.71,1.26-.28,7-3,7.59-1.19-1.14,1.76-2.28,3.82-4.56,4.1-4.05-2.05-2.63.4-4.85.8m-11.06,1.6c-.06-.92-.11-1.77-.17-2.63-1.08-1.37-4.5-5-2.45-6.33a7.57,7.57,0,0,0,.74.57c.63,1.49,3.59,3.54,5.3,5,.06,2.34-1.37,3.08-3.42,3.43m-1.08,8.15c-2.85-1.37-4.45-3.59-4.33-6.1,1.93-.06,2.28,2.16,5.41.8,1.71-1.83,3.82-2.91,5.7-4.56,0-.52.06-1,.06-1.49L136,22.1c1.65-1.88,4.22-6,3.93-8.15-1.59,0-3.08,1.08-4.22.51-.05-1.65.23-1.54,1.49-2.45,2.56-3.48,7.29-6.21,6.84-10.72.28-2.28,2.51-1.08,4.1.06,1.48,2.4-.57,3.42-2.74,5.42a34,34,0,0,1-4,4.61v.46c2.16.4,3.19-.17,3.25,2.34-.63,1-1.71,2.05-1.43,3.59,3.19-1.08,6.1-2.74,9.46-.23.74,3.88-3.7,5-5.58,7.64a7.7,7.7,0,0,0-1,.74c-4,.12-7,3.65-10.6,4.62a1.58,1.58,0,0,1-.12-.51c1.09-.86,3.77-2.4,3.94-3.71-2.51-1.2-2.22-1-4.33.4-3.08,1-4.34,1.37-6.28,3.42-.39,1-.57,2.57-.85,3.31l-.74.17m11.06,3c-.06-1,3.08-3.53,4.1-4.33a6,6,0,0,1,1-.11c.06,1.53-3.76,3.53-5.13,4.44M133.33,39c-1.31.06-2.62.12-4,.23a2.25,2.25,0,0,1-1-.34c-.05-.8,0-.68.46-1.14,3.65-1.65,7.35-4,11.12-5.64,1.71-1,3.47-1.94,5.24-2.91,1.25-.12,4-.52,3.7,1.77-1.25.57-3.42,3.3-4.33,4.38a71.25,71.25,0,0,0-9.23,6.1c-.23,0-.46,0-.69,0-.05-1.37,2.11-3.25,3.2-4.28.17-.17.05-.45-.23-.34-1.43.74-2.4,2.34-4.22,2.22m4.73,17.22c-1.88-.57-9.92-2.85-8.78-4.85,1.88,0,4.85,1.72,7.7,1.37.85-1.31.45-4.22-.06-5.36-2.62.12-3.53,1.66-5.47,2.34-2.28-.17-5.76-.28-5.65-2.68,2.51-1.48,6-2.39,9.07-3.3,1-.8-.46-1.49,1.59-1.26,1.14,1,4.56,0,6.39-.34a6.59,6.59,0,0,1,2.74,1.31c.11,3.31-7.87,2.28-4.57,6.5.12,2.05-.34,5.7-3,6.27M26,36.87a14.48,14.48,0,0,0-.06,2.28l-1.14-.46-.23-.51v-.63l-.05-.63.11-.62a3.55,3.55,0,0,1,1.37.57M.08,47.58c0-1.59.05-3.25.05-4.78.06-3,.12-6,.18-9C.25,32.65.25,31.57.25,30.48c-.35-3.42-.86-7.69,2.56-9.12,1.2.74,1.09,3,2.11,4.79,2.68.85,1.2,4.16,1.2,6.78a8.22,8.22,0,0,0,1-3.13C7.37,25.52,7,24,9.48,21.19c1.48-1,3.82-2.28,4.91-3.19,7.75-4.28,7.75-4.28,8.38-4.79,2.56-4.05,2-9.64,5.07-12.88,1.31-.4,2.17.22,2.28,2,1.54,0,4.27,2.05,5.41,3.71-.22,2.45-4.21,5-6.27,5.81-2.16,2.05-1.25,3.71-.79,6a.63.63,0,0,1-.12.62c-.05.06-.11.17-.17.23-1.25,1.83-3,4.16-3.53,6.39,1.76-1.31,3.65-3,5.81-3.37,2.28,1.66-1.88,4-2.39,5.65.23.79,1.59.62,1.88,2.85-1.6,6.38-.86,12.77.23,19.61-.35,1.54-2.45,1.82-3.59,1.82-1.37-1-2.91-4.05-2.74-5.41a5.11,5.11,0,0,0,2.11.62,6.77,6.77,0,0,0-.17-4.27c-1.43-.46-1.71-.46-2.17-1.37a1.49,1.49,0,0,0-.51.06c-.4.91-.52,2.22-1.09,4.22-.17,1.31,0,7.81-2.9,7.35-1.37-1.14-1.2-1-1.31-2.45a127.55,127.55,0,0,1,3.47-13.63c.12-2.22,1.26-3.87,1.77-5.7-1.77.06-3.36,1.94-4.39-.17a3.38,3.38,0,0,1,.06-.8c2.45-2.85,2.79-5.41,2.05-8.72-.06-.23.17-.51.29-.74.57-1,1.42-2.28,1.08-3.31-1.66,0-3.59,2.51-4.68,3.48-2.56,1.88-2.79,2.34-4,3-3.65,1.09-3.7,1-4.22,4.39A45.82,45.82,0,0,1,6.63,44.68c-.28,1.76-.57,3.53-.8,5.36,0,1.65.46,4.78-1.59,5.64A10.8,10.8,0,0,1,.93,53.29a50.52,50.52,0,0,1-.85-5.71M25.56,33.22c-.4-.17-.23-1.14-.06-1.77.17-.06.8.29.86.34a9.15,9.15,0,0,1-.18,1.77c-.11,0-.51-.4-.62-.34M3.44,13.15a5.72,5.72,0,0,1-.63-.45,4.91,4.91,0,0,1-2-4.79c2.39-.4,6.44.22,5.93,3.65-.12.68-.4.74-.92,1a7,7,0,0,1-1.48.51c-.28.06-.62,0-.91.06m26.22-6.1c0-1-.05-2-.05-3,1,0,1.31.8,1.31,2.05a4.35,4.35,0,0,1-1.26,1"/></g></g></svg>