<svg xmlns="http://www.w3.org/2000/svg" height="25" viewBox="0 0 453.82 436.11"><defs><style>.cls-1{fill:#ffffff;opacity:0.25;}</style></defs><g id="图层_2" data-name="图层 2"><g id="图层_1-2" data-name="图层 1"><path class="cls-1" d="M224,434.23c-40.4,1.32-81.36,2.7-120.67-5.21C69,422.12,32.16,415.1,7,386-3.36,374-1.78,362.5,8.87,348.9c14.9-19,40.49-20.43,55.33-37.6,16.09-18.62,26.78-39,25.4-65.75-1.81-34.82-9.49-71.64,4.69-104.22C107.23,111.6,126.57,84.87,156.48,66,171.4,56.6,192.93,50.8,195,22.5,197-3.2,224.24.1,242.61.18c23.39.11,12,23.25,31.91,46C295,65.47,400.8,96.08,374.13,240.52c-8.61,29.26,21.5,81.27,50.72,90.48,11.61,3.66,24.13,11.28,27.47,25,5.5,22.6-4.45,37.79-23.67,50.39-18.66,12.23-39.18,14.67-59.06,21.25C322.78,443.23,272.27,432.12,224,434.23ZM82.3,365.75c-2.86,1.43-4.46,5.39-6.64,8.18,2.42,1.88,4.68,5.13,7.28,5.44,35,4.18,70,7.87,104.92,11.84,32.79,3.72,66.65,5.41,99.88-3.49,25.77-6.89,52.12-3.88,79.32-5.68,6.16-.41,12.47-1.88,14.35-8.64,1.58-5.67-3.81-7.71-7.74-9.51-20.22-9.28-62.61-17.72-84.94-18.69-23.78-1.45-26.07,31.48-54,32.34-22.5-2.5-27.09-37.76-64.88-31.68C169.89,345.86,108.53,352.63,82.3,365.75Z"/></g></g></svg>