<svg xmlns="http://www.w3.org/2000/svg" height="72" viewBox="0 0 102 72"><defs><style>.cls-2{fill:#f5f5f5;}</style></defs><g id="图层_2" data-name="图层 2"><g id="图层_1-2" data-name="图层 1"><path class="cls-2" d="M50.06,72l-4.29-4.79c-2-2.21-1.52-4.49,1.33-5a19.21,19.21,0,0,1,6.93,0c2.85.54,3.31,2.82,1.33,5L51.06,72Z"/><path class="cls-2" d="M.56,22.9a65.91,65.91,0,0,1,36.05-20A81.11,81.11,0,0,1,61.8,2.17c9,1,17.64,4.58,25.43,9.49,3.91,2.46,7.52,5.4,11.24,8.16,1.62,1.2,1.83,2.36.31,4.08-5,5.68-4.78,5.54-10.53.75-8.71-7.26-18.76-11.21-30.12-12.93-12.76-1.92-24.35.84-35.42,6.48-4.5,2.3-8.43,5.79-12.39,9-1.74,1.42-2.81,2-4.52.11A58,58,0,0,0,.56,22.9Z"/><path class="cls-2" d="M22.63,43.62l-7.16-7.15C31.74,17.16,68,15.7,85.69,36.33A4.38,4.38,0,0,1,85,37.51c-1.94,1.77-3.77,4.58-6,4.9-1.78.26-4-2.54-6-3.88-14.19-9.14-30.17-9.12-44.63-.18C26.23,39.71,24.53,41.87,22.63,43.62Z"/><path class="cls-2" d="M36,58.31c-1.38-1.71-2.47-3.19-3.71-4.53-2.7-2.91-2.77-3.39.29-5.82A29.2,29.2,0,0,1,68.5,48c1,.83,2.41,3.06,2.13,3.41a39.8,39.8,0,0,1-5.7,5.29c-.17.14-1.05-.65-1.63-.93a58.74,58.74,0,0,0-7.59-3.66C48.29,49.66,42.15,52.29,36,58.31Z"/></g></g></svg>